<?xml version="1.0" standalone="no"?>
<!DOCTYPE svg PUBLIC "-//W3C//DTD SVG 20010904//EN"
 "http://www.w3.org/TR/2001/REC-SVG-20010904/DTD/svg10.dtd">
<svg version="1.0" xmlns="http://www.w3.org/2000/svg"
 width="50px" height="50px" style="fill: rgba(255, 255, 255 );" viewBox="0 0 512.000000 512.000000"
 preserveAspectRatio="xMidYMid meet">

<g transform="translate(0.000000,512.000000) scale(0.100000,-0.100000)"
fill="#000000" stroke="none">
<path d="M4865 5109 c-755 -61 -1429 -295 -2060 -714 -329 -219 -664 -526
-893 -818 l-77 -99 -150 6 c-82 3 -293 13 -467 21 -280 14 -321 14 -345 1 -41
-21 -860 -847 -868 -874 -4 -13 -4 -39 -1 -57 13 -69 18 -71 567 -189 277 -60
505 -109 506 -110 1 -1 -54 -112 -122 -246 -96 -190 -124 -254 -125 -285 0
-39 6 -46 445 -485 l445 -445 42 0 c36 1 80 22 270 128 125 70 231 127 236
127 4 0 55 -217 112 -482 57 -266 109 -498 116 -515 18 -44 69 -75 114 -69 29
5 94 65 458 428 233 233 429 434 437 448 11 22 10 96 -10 485 l-23 460 26 22
c15 12 65 52 112 88 533 414 967 1029 1237 1755 151 405 246 836 269 1220 8
135 -4 172 -61 196 -37 15 -41 15 -190 3z m25 -259 c0 -54 -36 -310 -61 -429
-47 -231 -146 -569 -209 -716 l-21 -49 -469 469 c-259 259 -470 473 -470 476
0 4 8 9 18 12 9 3 89 31 177 62 265 94 581 167 860 199 186 21 175 23 175 -24z
m-915 -880 l530 -530 -77 -153 c-235 -463 -596 -908 -953 -1178 -245 -185
-539 -379 -929 -613 l-179 -108 -203 203 -204 204 269 270 c148 148 274 280
280 292 16 31 14 71 -6 103 -20 34 -52 50 -101 50 -34 0 -52 -15 -317 -280
l-280 -280 -210 210 -210 210 29 53 c207 374 529 854 738 1102 238 282 584
574 943 795 83 51 326 180 340 180 6 0 249 -239 540 -530z m-2645 -691 c151
-6 289 -14 307 -18 l32 -6 -85 -130 c-82 -126 -301 -486 -360 -592 -16 -29
-34 -53 -39 -53 -6 0 -197 40 -425 90 -228 49 -419 90 -425 90 -5 0 134 144
310 320 l320 321 45 -5 c25 -3 169 -11 320 -17z m170 -1634 l-150 -150 -140
140 -139 139 101 198 102 199 188 -188 188 -188 -150 -150z m1763 -47 c4 -46
12 -206 19 -356 l12 -273 -315 -315 c-253 -254 -315 -311 -321 -297 -10 23
-178 805 -178 826 0 9 73 59 188 128 182 110 472 293 542 343 19 14 38 25 41
26 3 0 9 -37 12 -82z m-1111 -333 c-9 -7 -95 -56 -191 -109 l-174 -98 -141
141 -141 141 150 150 150 150 182 -182 c159 -159 180 -183 165 -193z"/>
<path d="M3110 3804 c-175 -37 -334 -160 -408 -315 -47 -99 -62 -162 -62 -267
0 -230 135 -436 352 -536 386 -179 828 106 830 534 0 181 -49 300 -176 425
-152 150 -332 203 -536 159z m271 -236 c232 -106 299 -403 133 -587 -31 -34
-70 -63 -122 -88 -70 -35 -83 -38 -161 -38 -72 0 -95 5 -144 28 -154 71 -237
209 -225 376 11 152 114 275 273 328 63 20 179 12 246 -19z"/>
</g>
</svg>
