<svg version="1.0" xmlns="http://www.w3.org/2000/svg"
 width="50.000000pt" height="50.000000pt" viewBox="0 0 50.000000 50.000000"
 preserveAspectRatio="xMidYMid meet">

<g transform="translate(0.000000,50.000000) scale(0.100000,-0.100000)"
fill="#000000" stroke="none">
<path d="M64 455 c-6 -23 3 -82 10 -74 2 2 6 25 8 52 6 49 -7 65 -18 22z"/>
<path d="M240 471 c0 -5 -12 -12 -26 -15 -20 -5 -25 -12 -23 -34 2 -15 0 -33
-4 -40 -6 -8 -1 -12 13 -12 17 0 20 4 15 18 -13 31 -10 46 10 50 15 2 17 1 6
-6 -11 -8 -9 -11 8 -17 17 -5 20 -11 14 -33 -8 -34 -19 -41 -52 -36 l-26 4 25
-14 c19 -11 27 -11 32 -3 4 7 8 8 8 2 -1 -23 -38 -55 -75 -63 l-40 -9 33 -7
c24 -6 37 -17 46 -37 9 -22 15 -26 24 -17 6 6 19 13 28 14 13 2 15 -3 10 -28
-3 -17 -6 -38 -6 -47 0 -14 -2 -14 -10 -1 -7 11 -11 8 -20 -15 -13 -35 -31
-49 -42 -32 -6 9 -8 9 -8 0 0 -6 5 -15 10 -18 15 -9 12 -25 -5 -25 -9 0 -20
10 -26 23 -5 12 -16 33 -24 47 l-15 25 0 -28 c0 -32 47 -97 70 -97 9 0 23 12
33 28 l18 27 -4 -27 -4 -28 134 0 134 0 -7 38 c-9 55 -28 77 -80 98 -26 11
-70 30 -98 44 l-51 25 1 49 c0 29 6 52 12 54 8 2 12 30 12 78 0 72 -1 74 -25
74 -14 0 -25 -4 -25 -9z"/>
<path d="M85 231 c-6 -5 -27 -14 -47 -21 l-38 -12 0 -89 0 -89 60 0 c69 0 66
-8 46 115 -7 44 -11 86 -9 93 6 14 1 16 -12 3z"/>
<path d="M140 141 c5 -11 15 -23 21 -27 6 -3 3 5 -6 20 -20 30 -30 35 -15 7z"/>
</g>
</svg>
