<svg version="1.0" xmlns="http://www.w3.org/2000/svg"
 width="50.000000pt" height="71.000000pt" viewBox="0 0 50.000000 71.000000"
 preserveAspectRatio="xMidYMid meet">

<g transform="translate(0.000000,71.000000) scale(0.100000,-0.100000)"
fill="#000000" stroke="none">
<path d="M295 620 c-8 -13 3 -31 18 -29 34 4 45 -2 40 -21 -3 -11 -9 -20 -14
-20 -5 0 -7 -12 -4 -27 3 -16 2 -22 -1 -15 -10 21 -34 -19 -27 -46 4 -17 -2
-31 -21 -51 l-27 -28 17 -64 c9 -35 17 -70 17 -78 0 -8 7 -4 18 10 9 12 14 30
11 38 -3 9 7 1 22 -17 23 -26 26 -35 16 -47 -16 -20 7 -20 33 -1 17 13 17 16
-8 69 -29 61 -25 89 16 102 20 7 21 12 14 74 -7 69 -21 99 -63 138 -27 25 -47
29 -57 13z m45 -164 c0 -3 -4 -8 -10 -11 -5 -3 -10 -1 -10 4 0 6 5 11 10 11 6
0 10 -2 10 -4z"/>
<path d="M186 594 c-20 -19 -21 -44 -2 -44 8 0 21 -3 29 -6 18 -7 30 35 15 53
-14 17 -23 16 -42 -3z"/>
<path d="M75 420 c-4 -6 8 -27 25 -46 27 -32 31 -41 25 -74 -5 -30 -3 -39 11
-44 10 -4 21 -1 25 5 4 6 12 8 18 5 15 -9 15 41 0 83 -8 22 -16 30 -28 26 -10
-3 -23 6 -36 25 -21 32 -30 36 -40 20z"/>
<path d="M78 153 c7 -3 16 -2 19 1 4 3 -2 6 -13 5 -11 0 -14 -3 -6 -6z"/>
<path d="M238 153 c7 -3 16 -2 19 1 4 3 -2 6 -13 5 -11 0 -14 -3 -6 -6z"/>
<path d="M178 133 c12 -2 30 -2 40 0 9 3 -1 5 -23 4 -22 0 -30 -2 -17 -4z"/>
<path d="M87 99 c7 -7 15 -10 18 -7 3 3 -2 9 -12 12 -14 6 -15 5 -6 -5z"/>
<path d="M58 33 c7 -3 16 -2 19 1 4 3 -2 6 -13 5 -11 0 -14 -3 -6 -6z"/>
<path d="M118 33 c7 -3 16 -2 19 1 4 3 -2 6 -13 5 -11 0 -14 -3 -6 -6z"/>
<path d="M173 33 c9 -2 23 -2 30 0 6 3 -1 5 -18 5 -16 0 -22 -2 -12 -5z"/>
<path d="M238 33 c7 -3 16 -2 19 1 4 3 -2 6 -13 5 -11 0 -14 -3 -6 -6z"/>
<path d="M298 33 c7 -3 16 -2 19 1 4 3 -2 6 -13 5 -11 0 -14 -3 -6 -6z"/>
<path d="M343 33 c9 -2 23 -2 30 0 6 3 -1 5 -18 5 -16 0 -22 -2 -12 -5z"/>
<path d="M398 33 c7 -3 16 -2 19 1 4 3 -2 6 -13 5 -11 0 -14 -3 -6 -6z"/>
</g>
</svg>
