<svg version="1.0" xmlns="http://www.w3.org/2000/svg"
 width="50.000000pt" height="50.000000pt" viewBox="0 0 50.000000 50.000000"
 preserveAspectRatio="xMidYMid meet">

<g transform="translate(0.000000,50.000000) scale(0.100000,-0.100000)"
fill="#000000" stroke="none">
<path d="M28 349 l-26 -30 6 -147 7 -147 231 -3 231 -2 6 91 c11 146 9 209 -7
225 -11 11 -44 14 -136 14 -98 0 -122 3 -126 15 -4 10 -20 15 -49 15 -39 0
-43 -2 -39 -22 2 -13 2 -17 -2 -10 -3 6 -10 12 -15 12 -6 0 -7 -4 -4 -10 3 -5
-1 -10 -9 -10 -9 0 -16 6 -16 13 0 8 -3 8 -9 -2 -7 -11 -10 -10 -13 6 -3 20
-5 19 -30 -8z m160 4 c2 -8 -5 -13 -17 -13 -12 0 -21 6 -21 16 0 18 31 15 38
-3z m227 -53 c3 -5 -2 -10 -12 -10 -11 0 -24 -5 -31 -12 -7 -7 -12 -8 -12 -2
0 26 42 44 55 24z m-122 -22 c4 -12 1 -29 -6 -37 -9 -12 -9 -13 1 -7 7 4 12 1
12 -9 0 -9 -4 -13 -10 -10 -5 3 -10 -1 -10 -9 0 -8 5 -18 10 -21 6 -3 9 -18 9
-33 l-1 -27 -8 30 -8 30 -1 -29 c0 -16 -4 -27 -7 -24 -6 7 -13 150 -7 161 8
14 21 7 26 -15z m118 -22 c10 6 10 -28 -1 -71 l-8 -30 -1 31 c-1 34 -35 55
-45 28 -3 -8 -16 -14 -28 -13 l-23 0 23 11 c12 6 22 15 22 20 0 4 6 8 14 8 8
0 17 8 21 18 5 11 9 13 12 4 3 -6 9 -10 14 -6z m-161 -16 c0 -5 -5 -10 -11
-10 -5 0 -7 5 -4 10 3 6 8 10 11 10 2 0 4 -4 4 -10z m-86 -8 c2 -4 -9 -9 -25
-10 -16 -1 -29 2 -29 8 0 12 47 14 54 2z m286 -2 c0 -5 -2 -10 -4 -10 -3 0 -8
5 -11 10 -3 6 -1 10 4 10 6 0 11 -4 11 -10z m-246 -14 c-21 -15 -30 -14 -19 3
3 6 14 11 23 11 13 0 13 -2 -4 -14z m7 -109 c-10 -9 -11 -8 -5 6 3 10 9 15 12
12 3 -3 0 -11 -7 -18z"/>
</g>
</svg>