<svg version="1.0" xmlns="http://www.w3.org/2000/svg"
 width="64.000000pt" height="64.000000pt" viewBox="0 0 64.000000 64.000000"
 preserveAspectRatio="xMidYMid meet">

<g transform="translate(0.000000,64.000000) scale(0.100000,-0.100000)"
fill="#000000" stroke="none">
<path d="M15 631 c-3 -5 -1 -12 5 -16 5 -3 10 1 10 9 0 18 -6 21 -15 7z"/>
<path d="M70 624 c0 -8 5 -12 10 -9 6 4 8 11 5 16 -9 14 -15 11 -15 -7z"/>
<path d="M125 631 c-3 -5 -1 -12 5 -16 5 -3 10 1 10 9 0 18 -6 21 -15 7z"/>
<path d="M90 545 c-11 -13 3 -31 91 -120 l103 -105 -103 -105 c-130 -132 -129
-135 38 -135 l117 0 112 113 c62 63 112 120 112 127 0 7 -50 64 -112 127
l-112 113 -117 0 c-92 0 -119 -3 -129 -15z m145 -35 c16 -16 33 -30 39 -30 5
0 -3 14 -19 30 l-29 30 50 0 49 0 110 -110 110 -110 -110 -110 -110 -110 -50
0 -50 0 103 103 c56 56 102 109 102 117 0 9 -29 45 -65 80 -36 35 -65 60 -65
54 0 -5 25 -34 55 -64 30 -30 55 -61 55 -69 0 -9 -46 -62 -102 -118 l-103
-103 -55 0 -55 0 110 110 110 110 -110 110 -110 110 56 0 c48 0 59 -4 84 -30z"/>
<path d="M500 14 c0 -8 5 -12 10 -9 6 4 8 11 5 16 -9 14 -15 11 -15 -7z"/>
<path d="M555 21 c-3 -5 -1 -12 5 -16 5 -3 10 1 10 9 0 18 -6 21 -15 7z"/>
<path d="M610 14 c0 -8 5 -12 10 -9 6 4 8 11 5 16 -9 14 -15 11 -15 -7z"/>
</g>
</svg>
